/* XPM */
static char * happy_ice_cream_074567_xpm[] = {
"64 64 6 1",
" 	c #2C2C2C",
".	c #000000",
"+	c #D23A3A",
"@	c #E75E6A",
"#	c #DFC17E",
"$	c #FFFFFF",
"                                                                ",
"                                                                ",
"                                                                ",
"                                                                ",
"                                                                ",
"                                                                ",
"                                                                ",
"                                                                ",
"                                                                ",
"                           @@@@@@@@@@                           ",
"                         @@@@@@@@@@@@@@                         ",
"                        @@@@@@@@@@@@@@@@                        ",
"                       @@@@@@@@@@@@@@@@@@                       ",
"                      @@@@@@@@@@@@@@@@@@@@                      ",
"                     @@@@@@@@@@@@@@@@@@@@@@                     ",
"                    @@@@@@@@@@@@@@@@@@@@@@@@                    ",
"                   @@@@@@$..@@@@@@@@$..@@@@@@                   ",
"                   @@@@@@...@@@@@@@@...@@@@@@                   ",
"                   @@@@@@...@@@@@@@@...@@@@@@                   ",
"                   @@@@@@@@@@@@@@@@@@@@@@@@@@                   ",
"                   @@@@@@@@@@@@@@@@@@@@@@@@@@                   ",
"                   @@@+++@@@@@@@@@@@@@@+++@@@                   ",
"                   @@@+++@@@@@@@@@@@@@@+++@@@                   ",
"                   @@@@@@@@@@@.@@.@@@@@@@@@@@                   ",
"                   @@@@@@@@@@@@..@@@@@@@@@@@@                   ",
"                   @@@@@@@@@@@@@@@@@@@@@@@@@@                   ",
"                    @@@@@@@@@@@@@@@@@@@@@@@@@                   ",
"                   ...@@@@@@@@@@@@@@@@@@@@...                   ",
"                    .#.....@@@@@@@@@@.....#.                    ",
"                    .######...@@@@...######.                    ",
"                    .#########....#########.                    ",
"                     ..##################..                     ",
"                     .#.################.#.                     ",
"                      .#......####......#.                      ",
"                      .#######....#######.                      ",
"                       .################.                       ",
"                       .################.                       ",
"                        .##############.                        ",
"                        .##############.                        ",
"                         .############.                         ",
"                         .############.                         ",
"                         .############.                         ",
"                          .##########.                          ",
"                          .##########.                          ",
"                           .########.                           ",
"                           .########.                           ",
"                           .########.                           ",
"                            .######.                            ",
"                            .######.                            ",
"                             .####.                             ",
"                             .####.                             ",
"                              .##.                              ",
"                               ..                               ",
"                               ..                               ",
"                                                                ",
"                                                                ",
"                                                                ",
"                                                                ",
"                                                                ",
"                                                                ",
"                                                                ",
"                                                                ",
"                                                                ",
"                                                                "};
