/* XPM */
static char * standing_horse_052930_xpm[] = {
"64 64 630 2",
"  	c #2C2C2C",
". 	c #2C2C2C",
"+ 	c #2C2C2C",
"@ 	c #2C2C2C",
"# 	c #2C2C2C",
"$ 	c #2C2C2C",
"% 	c #2C2C2C",
"& 	c #2C2C2C",
"* 	c #47512E",
"= 	c #5B5330",
"- 	c #6A5831",
"; 	c #635930",
"> 	c #40552D",
", 	c #19522B",
"' 	c #45502E",
") 	c #6E4E33",
"! 	c #8F5538",
"~ 	c #A7633B",
"{ 	c #9D6438",
"] 	c #645930",
"^ 	c #12512B",
"/ 	c #4A4D2C",
"( 	c #7B4830",
"_ 	c #A25337",
": 	c #BF673E",
"< 	c #B6693D",
"[ 	c #7F5B34",
"} 	c #334D2C",
"| 	c #2A4E2C",
"1 	c #21512B",
"2 	c #4F502F",
"3 	c #7E4C36",
"4 	c #A3563B",
"5 	c #C0683F",
"6 	c #BC6A3E",
"7 	c #955C39",
"8 	c #6D4E33",
"9 	c #544630",
"0 	c #3E462D",
"a 	c #2B4E2C",
"b 	c #16512B",
"c 	c #45572B",
"d 	c #726431",
"e 	c #927958",
"f 	c #AB8F7E",
"g 	c #BC9080",
"h 	c #C77D5E",
"i 	c #C26B3F",
"j 	c #AB613B",
"k 	c #915638",
"l 	c #744934",
"m 	c #574430",
"n 	c #3F492D",
"o 	c #2E4C2C",
"p 	c #2D4C2C",
"q 	c #22512B",
"r 	c #B58045",
"s 	c #D5A985",
"t 	c #E1D0BE",
"u 	c #E0CCBD",
"v 	c #D39A81",
"w 	c #C96F41",
"x 	c #C1693B",
"y 	c #B0633D",
"z 	c #714A34",
"A 	c #46412E",
"B 	c #45412E",
"C 	c #2C4E2C",
"D 	c #45582B",
"E 	c #726432",
"F 	c #A78055",
"G 	c #D8A27D",
"H 	c #E9BFA4",
"I 	c #E1D5C5",
"J 	c #D8CABC",
"K 	c #D09880",
"L 	c #CC7041",
"M 	c #CC6E3D",
"N 	c #AB613C",
"O 	c #614131",
"P 	c #604131",
"Q 	c #404A2D",
"R 	c #D9A47F",
"S 	c #EAC5B4",
"T 	c #DDC5BC",
"U 	c #AFA59E",
"V 	c #A0887A",
"W 	c #BD7859",
"X 	c #CD7040",
"Y 	c #7D4D36",
"Z 	c #7C4D36",
"` 	c #584530",
" .	c #1C522A",
"..	c #215029",
"+.	c #3D512D",
"@.	c #8D7453",
"#.	c #D3A07E",
"$.	c #F1C5AE",
"%.	c #F5DFD6",
"&.	c #DCD0CC",
"*.	c #A28B84",
"=.	c #8F4E2E",
"-.	c #B86335",
";.	c #CD7141",
">.	c #CD7041",
",.	c #C16B3F",
"'.	c #AB623C",
").	c #9E5C3B",
"!.	c #9D5B3A",
"~.	c #374E27",
"{.	c #5D4F31",
"].	c #9D8274",
"^.	c #D9BCB2",
"/.	c #F9F0E7",
"(.	c #E9DDD2",
"_.	c #C79C89",
":.	c #B86336",
"<.	c #C56937",
"[.	c #BE6A3F",
"}.	c #BD693F",
"|.	c #22522F",
"1.	c #2D5336",
"2.	c #454E34",
"3.	c #634B35",
"4.	c #957B74",
"5.	c #C7B3B0",
"6.	c #E2D2CD",
"7.	c #EDDFD3",
"8.	c #E8CFBD",
"9.	c #D79B80",
"0.	c #CA6F41",
"a.	c #C76D40",
"b.	c #C56B40",
"c.	c #12522B",
"d.	c #2F5438",
"e.	c #45584A",
"f.	c #51534A",
"g.	c #59473C",
"h.	c #745A51",
"i.	c #967D76",
"j.	c #B59388",
"k.	c #CEA08C",
"l.	c #D1825D",
"m.	c #CC6F40",
"n.	c #BC663F",
"o.	c #B6623E",
"p.	c #BD663F",
"q.	c #435F49",
"r.	c #667069",
"s.	c #6C6E6C",
"t.	c #5D5753",
"u.	c #59463C",
"v.	c #684636",
"w.	c #885237",
"x.	c #AC613C",
"y.	c #C06A3F",
"z.	c #CB6F41",
"A.	c #C86D40",
"B.	c #BF683F",
"C.	c #B25F3D",
"D.	c #AA5B3C",
"E.	c #B4613E",
"F.	c #C46B40",
"G.	c #CD7242",
"H.	c #CF7543",
"I.	c #CD7142",
"J.	c #0E522B",
"K.	c #3E542D",
"L.	c #715B32",
"M.	c #725B32",
"N.	c #18522B",
"O.	c #556D5B",
"P.	c #848E87",
"Q.	c #898F8C",
"R.	c #554E4A",
"S.	c #574136",
"T.	c #6B412C",
"U.	c #874D2F",
"V.	c #A55C36",
"W.	c #C06A3D",
"X.	c #A8593C",
"Y.	c #A2563B",
"Z.	c #AF5E3D",
"`.	c #C26A40",
" +	c #D57D47",
".+	c #D07543",
"++	c #B3693C",
"@+	c #B4693C",
"#+	c #898E8B",
"$+	c #696D6B",
"%+	c #4C4C4A",
"&+	c #483D38",
"*+	c #50392F",
"=+	c #624130",
"-+	c #835035",
";+	c #A4613A",
">+	c #AC663B",
",+	c #A15F3A",
"'+	c #995839",
")+	c #9A543A",
"!+	c #9A513A",
"~+	c #9B513B",
"{+	c #A95A3C",
"]+	c #C1693F",
"^+	c #D27845",
"/+	c #DC864B",
"(+	c #DC874B",
"_+	c #564430",
":+	c #3D492D",
"<+	c #2B4C2C",
"[+	c #2A4C2C",
"}+	c #244D2B",
"|+	c #1B502B",
"1+	c #705B32",
"2+	c #906136",
"3+	c #BA6B3D",
"4+	c #CF7443",
"5+	c #D07644",
"6+	c #BA6B3E",
"7+	c #63562F",
"8+	c #3D4D29",
"9+	c #1A4726",
"0+	c #174726",
"a+	c #1B4B28",
"b+	c #1C502A",
"c+	c #686D6B",
"d+	c #4E5251",
"e+	c #373838",
"f+	c #34302E",
"g+	c #382E2B",
"h+	c #41322C",
"i+	c #54412E",
"j+	c #685330",
"k+	c #6D5A31",
"l+	c #655731",
"m+	c #705333",
"n+	c #884F37",
"o+	c #924C39",
"p+	c #944D3A",
"q+	c #A4573B",
"r+	c #D47C46",
"s+	c #E18E4E",
"t+	c #E49150",
"u+	c #3B462D",
"v+	c #C76E40",
"w+	c #D67D47",
"x+	c #D98149",
"y+	c #C76F40",
"z+	c #9C5E36",
"A+	c #614327",
"B+	c #142C1C",
"C+	c #082C1B",
"D+	c #173920",
"E+	c #1B4A28",
"F+	c #305439",
"G+	c #46504A",
"H+	c #353A37",
"I+	c #272729",
"J+	c #262628",
"K+	c #272B29",
"L+	c #253329",
"M+	c #233F2A",
"N+	c #1F4C2B",
"O+	c #51502F",
"P+	c #8F4939",
"Q+	c #904A39",
"R+	c #A2553B",
"S+	c #D37A45",
"T+	c #DE8A4C",
"U+	c #E3904F",
"V+	c #965839",
"W+	c #885036",
"X+	c #804D34",
"Y+	c #7F4C34",
"Z+	c #804C34",
"`+	c #7B5034",
" @	c #755832",
".@	c #D17844",
"+@	c #D47B46",
"@@	c #D88148",
"#@	c #DD884C",
"$@	c #E08C4E",
"%@	c #B26239",
"&@	c #703D26",
"*@	c #101014",
"=@	c #000D13",
"-@	c #13271A",
";@	c #183E22",
">@	c #245330",
",@	c #2F4B36",
"'@	c #2A372E",
")@	c #262728",
"!@	c #243329",
"~@	c #20432A",
"{@	c #1B4C2A",
"]@	c #15502B",
"^@	c #0C522B",
"/@	c #7D4C36",
"(@	c #8E4939",
"_@	c #8F4A39",
":@	c #BE683F",
"<@	c #CE7342",
"[@	c #DA854A",
"}@	c #BC683E",
"|@	c #B8663D",
"1@	c #B6653D",
"2@	c #B5663D",
"3@	c #B4683C",
"4@	c #DB854A",
"5@	c #E18D4E",
"6@	c #E49350",
"7@	c #E69551",
"8@	c #E89652",
"9@	c #E79652",
"0@	c #B36239",
"a@	c #703D25",
"b@	c #100E14",
"c@	c #000A13",
"d@	c #111916",
"e@	c #25362A",
"f@	c #46512E",
"g@	c #814B37",
"h@	c #8B4B38",
"i@	c #9F543B",
"j@	c #B9643E",
"k@	c #C76C40",
"l@	c #E69451",
"m@	c #E28F4F",
"n@	c #D57C46",
"o@	c #E99853",
"p@	c #EA9A54",
"q@	c #000C13",
"r@	c #100F14",
"s@	c #101114",
"t@	c #142D1C",
"u@	c #1D502A",
"v@	c #1F4C2A",
"w@	c #204A2A",
"x@	c #1E502B",
"y@	c #2F522C",
"z@	c #654E32",
"A@	c #824C37",
"B@	c #AE5D3D",
"C@	c #E59350",
"D@	c #50502F",
"E@	c #964E3A",
"F@	c #B15F3D",
"G@	c #C36B40",
"H@	c #E89852",
"I@	c #E89752",
"J@	c #C0693F",
"K@	c #A75D38",
"L@	c #694228",
"M@	c #011915",
"N@	c #111014",
"O@	c #121316",
"P@	c #162E1D",
"Q@	c #1B4827",
"R@	c #914B39",
"S@	c #A7593C",
"T@	c #D88149",
"U@	c #B25F3E",
"V@	c #8E5337",
"W@	c #594B2D",
"X@	c #0A271A",
"Y@	c #121216",
"Z@	c #161619",
"`@	c #193020",
" #	c #1C4827",
".#	c #AD5D3D",
"+#	c #9E553B",
"@#	c #894F37",
"##	c #46502E",
"$#	c #122E1D",
"%#	c #1B1B1E",
"&#	c #1D3223",
"*#	c #1D4929",
"=#	c #644E32",
"-#	c #824B37",
";#	c #E3914F",
">#	c #A0543B",
",#	c #684F32",
"'#	c #45512E",
")#	c #2E522C",
"!#	c #183020",
"~#	c #212124",
"{#	c #223528",
"]#	c #1F492A",
"^#	c #4E4F2F",
"/#	c #BE673F",
"(#	c #A1553B",
"_#	c #954E3A",
":#	c #1D4928",
"<#	c #222325",
"[#	c #292A2C",
"}#	c #293A2E",
"|#	c #224B2C",
"1#	c #4D502F",
"2#	c #A0553B",
"3#	c #904B39",
"4#	c #8E4A39",
"5#	c #1E492A",
"6#	c #292B2C",
"7#	c #323434",
"8#	c #314035",
"9#	c #264C2F",
"0#	c #54512F",
"a#	c #865037",
"b#	c #C56C40",
"c#	c #214B2C",
"d#	c #313233",
"e#	c #38393A",
"f#	c #354339",
"g#	c #274D31",
"h#	c #5C5330",
"i#	c #925738",
"j#	c #B7633E",
"k#	c #254C2F",
"l#	c #3A3C3C",
"m#	c #54542F",
"n#	c #865836",
"o#	c #A8613B",
"p#	c #A6583C",
"q#	c #855037",
"r#	c #55512F",
"s#	c #274D30",
"t#	c #3B3D3D",
"u#	c #35532C",
"v#	c #56542F",
"w#	c #885D35",
"x#	c #B86A3D",
"y#	c #984F3A",
"z#	c #974F3A",
"A#	c #5D5430",
"B#	c #924B39",
"C#	c #974E3A",
"D#	c #A85A3C",
"E#	c #A05E3A",
"F#	c #665731",
"G#	c #3B3C3D",
"H#	c #0F522B",
"I#	c #814C36",
"J#	c #AD663B",
"K#	c #6E5A31",
"L#	c #13522B",
"M#	c #C96E41",
"N#	c #965639",
"O#	c #924E39",
"P#	c #935738",
"Q#	c #A35E3B",
"R#	c #B6653E",
"S#	c #254E2F",
"T#	c #304736",
"U#	c #AE5E3D",
"V#	c #975739",
"W#	c #805934",
"X#	c #645731",
"Y#	c #6F5233",
"Z#	c #844D37",
"`#	c #2E512C",
" $	c #5E5430",
".$	c #765533",
"+$	c #955639",
"@$	c #C36A40",
"#$	c #20512C",
"$$	c #4E502F",
"%$	c #CE7141",
"&$	c #B46A3C",
"*$	c #A1563B",
"=$	c #7C4C36",
"-$	c #4C4F2F",
";$	c #C96E40",
">$	c #C16A3E",
",$	c #AF5F3B",
"'$	c #934F37",
")$	c #724833",
"!$	c #484E2E",
"~$	c #9C533A",
"{$	c #B2613C",
"]$	c #BB673C",
"^$	c #B8653B",
"/$	c #A05E37",
"($	c #67512D",
"_$	c #224B28",
":$	c #184F2A",
"<$	c #C06A3E",
"[$	c #A75C37",
"}$	c #8B4D31",
"|$	c #723F2E",
"1$	c #583F2C",
"2$	c #384C2B",
"3$	c #914D38",
"4$	c #945135",
"5$	c #915132",
"6$	c #874C2F",
"7$	c #73432A",
"8$	c #4F3924",
"9$	c #2B3D23",
"0$	c #204B28",
"a$	c #675830",
"b$	c #A06037",
"c$	c #864B2F",
"d$	c #643927",
"e$	c #4F2E24",
"f$	c #3C3725",
"g$	c #2A4A29",
"h$	c #4A4F2E",
"i$	c #724832",
"j$	c #7E4332",
"k$	c #77422E",
"l$	c #6A3D29",
"m$	c #583424",
"n$	c #472A20",
"o$	c #3A251D",
"p$	c #2E3320",
"q$	c #244927",
"r$	c #4A502C",
"s$	c #724B2D",
"t$	c #77432B",
"u$	c #5E3624",
"v$	c #44281E",
"w$	c #32201B",
"x$	c #25301F",
"y$	c #1F4827",
"z$	c #3A4C2B",
"A$	c #62372B",
"B$	c #603728",
"C$	c #563324",
"D$	c #452A20",
"E$	c #38231C",
"F$	c #34211B",
"G$	c #2E4D2A",
"H$	c #424327",
"I$	c #453723",
"J$	c #3A2A1E",
"K$	c #2E1E1A",
"L$	c #241917",
"M$	c #1C291B",
"N$	c #1B3F23",
"O$	c #2B4D2A",
"P$	c #3D4128",
"Q$	c #463626",
"R$	c #482F22",
"S$	c #44291F",
"T$	c #3A241C",
"U$	c #33201B",
"V$	c #33211B",
"W$	c #22502B",
"X$	c #2A4D29",
"Y$	c #2F4226",
"Z$	c #312F1F",
"`$	c #301F1A",
" %	c #2E1D19",
".%	c #27211A",
"+%	c #2A4C2A",
"@%	c #2D4226",
"#%	c #2D2D1E",
"$%	c #2E1E19",
"%%	c #311F1A",
"&%	c #2D1C19",
"*%	c #1D1616",
"=%	c #234928",
"-%	c #1D1516",
";%	c #194826",
">%	c #122D1C",
",%	c #1C1616",
"'%	c #2C1C19",
")%	c #331F1A",
"!%	c #2C1B18",
"~%	c #1D1515",
"{%	c #132D1B",
"]%	c #1A4826",
"^%	c #1D1615",
"/%	c #33201A",
"(%	c #2E331F",
"_%	c #362823",
":%	c #3D3230",
"<%	c #393331",
"[%	c #2C2A29",
"}%	c #203426",
"|%	c #1E4929",
"1%	c #1A4A27",
"2%	c #1A3E22",
"3%	c #1C281A",
"4%	c #292220",
"5%	c #39312F",
"6%	c #3C3631",
"7%	c #343527",
"8%	c #234827",
"9%	c #3D3330",
"0%	c #4A4846",
"a%	c #4A4B4A",
"b%	c #3D3F3E",
"c%	c #2F3E33",
"d%	c #244B2E",
"e%	c #1C291A",
"f%	c #28211A",
"g%	c #494846",
"h%	c #484F48",
"i%	c #344C36",
"j%	c #1E5029",
"k%	c #294C2D",
"l%	c #384032",
"m%	c #45413F",
"n%	c #4D4F4E",
"o%	c #4C4F4E",
"p%	c #3F4242",
"q%	c #254C2E",
"r%	c #2B2928",
"s%	c #393231",
"t%	c #48544C",
"u%	c #31533A",
"v%	c #315238",
"w%	c #475248",
"x%	c #4E4F4E",
"y%	c #484A4A",
"z%	c #3F4142",
"A%	c #343637",
"B%	c #2A3A2E",
"C%	c #224A2C",
"D%	c #3D3E3E",
"E%	c #3D4A41",
"F%	c #2B5034",
"G%	c #35553C",
"H%	c #4E5A52",
"I%	c #525555",
"J%	c #444747",
"K%	c #373839",
"L%	c #2D2E2F",
"M%	c #25372A",
"                                                                                                                                ",
"                                                                                                                                ",
"                                                                                                                                ",
"                                                                                                                                ",
"                                                                                                                                ",
"                                                                                                                                ",
"                                                                                                                                ",
"                                                                                                                                ",
"                                                                                                                                ",
"                  . + @ # $ %                                                                                                   ",
"                                                                                                                                ",
"              .   & * = - ; > + , .                                                                                             ",
"              +   ' ) ! ~ { ]   $                                                                                               ",
"              $ ^ / ( _ : < [ ' } | 1 . . .                                                                                     ",
"              ,   2 3 4 5 6 7 8 9 0 a   .                                                                                       ",
"          b ^ c d e f g h i j k l m n o p | q . .                                                                               ",
"          ^   d r s t u v w x y k z m A B 0 C   .                                                                               ",
"      , % D E F G H I J K L M i N k l O P m Q | 1 . .                                                                           ",
"      ^   d r R S T U V W L X w i y k Y Z z ` 0 |   .                                                                           ",
"  .  ...+.@.#.$.%.&.*.=.-.L ;.>.L ,.'.).!.k l m n | 1 . .                                                                       ",
"  %   ~.{.].^.%./.(._.:.<.L L L L w i [.}.y k z m 0 |   .                                                                       ",
"  |.1.2.3.4.5.6.7.8.9.L M 0.a.b.b.a.0.L L i N k l m n | 1 . .                     % $ c.c.c.c.c.c.c.c.c.c.$ %                   ",
"  d.e.f.g.h.i.j.k.9.l.;.m.a.n.o.o.p.a.>.>.w i y k z m 0 |   .                                                                   ",
"  q.r.s.t.u.v.w.x.y.w z.A.B.C.D.D.E.F.G.H.H.I.i N k l m n | 1 . . . . .   % $ J.c.K.; L.M.L.L.L.L.L.L.M.L.; K.$ N.              ",
"  O.P.Q.s.R.S.T.U.V.W.a.p.C.X.Y.Y.Z.`.H. + +.+w i y k z m 0 |   .             $   ] { ++@+++++++++++++@+++{ ]   $               ",
"  O.P.#+$+%+&+*+=+-+;+>+,+'+)+!+~+{+]+^+/+(+ +H.I.i N k l _+:+<+[+<+<+}+|+K.; 1+M.2+3+L L I.4+5+5+4+I.>.L 6+2+7+8+9+0+a+b+      ",
"  q.r.c+d+e+f+g+h+i+j+k+l+m+n+o+p+q+B.r+s+t+(+ +H.w i y k z m A B A A u+C ] { ++@+3+v+>.>..+w+x+x+w+.+>.>.y+3+z+A+B+C+D+E+      ",
"  F+e.G+H+I+J+K+L+M+N+,   O+3 P+Q+R+B.S+T+U+s+(+r+4+;.,.N V+W+X+Y+Z+X+`+ @2+3+L >.I.4+.@+@@@#@$@$@(+ +H.I.;.L %@&@*@=@-@;@E+b+  ",
"  >@1.,@'@)@)@!@~@{@]@^@$ 2 /@(@_@Y.:@<@S+[@U+t+(+ +H.w i }@|@1@1@1@1@2@3@3+y+>.>..+ +4@5@6@7@8@9@t+(+ +4+;.>.0@a@b@c@d@-@D+a+  ",
"      N+M+e@e@M+N+    +   f@) g@h@i@j@k@z.+@5@l@m@#@@@+@.@4+I.L L L L L L L L I.H.n@(+U+o@p@o@7@6@5@4@ +H.;.L 0@a@*@q@r@s@t@9+  ",
"     .u@v@w@w@N+x@    .   y@* z@A@!+B@n.k@.@4@m@l@7@C@5@4@w+.+>.>.>.>.>.>.>.L 4+ +(+t+o@p@o@U+#@@@r+^+H.G.;.L %@&@s@=@b@*@B+9+  ",
"                          ,   D@3 E@R+F@G@4+ +(+t+H@p@I@U+(+n@H.I.L L L L L L 4+ +(+t+7@C@5@4@ +H.L L z.a.F.J@K@L@-@M@N@O@P@Q@  ",
"                          @ + 2 /@R@E@S@J@I..+r+(+U+o@p@o@t+(+ +4+L L L L L L I.H. +(+#@T@+@.@4+I.L L a.n.U@S@V@W@;@X@Y@Z@`@ #  ",
"                          +   f@) g@h@Y.B.L >.4+ +#@7@p@o@t+(+ +4+L L L L L L L L H. + +H.L L 0.a.F.J@j@.#+#@#) ##Q@$#Z@%#&#*#  ",
"                          .   y@* =#-#Y.B.L L ;.4+@@6@I@;#(+n@H.I.L L L L L L L L I.4+4+I.L L a.n.F@S@>#!+@#,#'#)# #!#%#~#{#]#  ",
"                              ,   ^#/@Y.B.L >.L L r+5@t+(+ +4+L L L L L L L L L L L L >.>.z.a./#Z.(#_#Q+_@/@D@  , :#&#<#[#}#|#  ",
"                              @ + 1#/@Y.B.L >.L L ^+4@(+n@4+I.L L L L L L L L L L L L L L a.n.Z.2#_#3#P+4#/@2 + @ 5#{#6#7#8#9#  ",
"                              N.  0#a#X.]+L L L L H. + +H.L L L L L L >.>.z.a.b#b#G@J@B.:@j@.#(#_#_@_@Q+_@/@D@  , c#}#d#e#f#g#  ",
"                              @   h#i#F@F.L L L L G.4+4+I.L L L L L L L L a.n.j#o.F@X.Y.Y.i@!+_#R@_@_@Q+_@/@D@  , k#8#e#l#f#g#  ",
"                              N.  m#n#o#,.L L L L L L L L L L z.a.G@J@B.:@j@.#S@p#(#E@_@_@_@_@_@4#(@(@R@_#q#r#  N.s#f#t#t#f#s#  ",
"                              %   u#v#w#x#L >.L L L L L L L L a.n.F@S@Y.Y.i@!+y#z#_#R@(@(@4#_@_@_@_@_@E@(#i#A#  @ s#f#t#t#f#s#  ",
"                                  c.  L.++L >.L L >.>.z.a.F.J@j@.#(#_#_@_@_@_@Q+Q+h@A@A@h@B#C#~+2#Y.Y.D#F@E#F#  $ s#f#G#G#f#s#  ",
"                                  H#N.1+++L >.L L L L a.n.F@S@i@!+_#R@(@(@4#_@_@_@I#z@z@A@_#(#.#j@:@B.]+G@J#K#  L#s#f#t#t#f#s#  ",
"                                  c.  L.++L >.M#`.}@< J#E#N#O#Q+Q+Q+Q+Q+Q+h@A@3 /@8 * ##8 q#P#Q#R#`.M#>.L ++L.  c.S#T#f#f#T#S#  ",
"                                  c.  L.++L >.`.U#V#W#k+X#Y#Z#4#_@_@_@_@_@A@z@O+2 f@y@`#f@0# $.$+$Z.@$;.>.++M.  c.#$S#s#s#S##$  ",
"                                  c.  L.++>.;.5 Y.3 2 + , * ) /@3 /@/@3 /@) *   +         ,   $$/@Y.B.%$;.&$M.  c.              ",
"                                  c.  L.++>.>.B.*$=$-$c.H#`#f@D@O+D@D@O+D@f@y@, @ + . . + L#@ -$=$*$B.>.>.++L.  c.              ",
"                                  c.  M.&$;$>$,$'$)$!$  +                                 ,   2 3 ~${$]$^$/$($_$:$              ",
"                                  c.  M.++<$[$}$|$1$2$  % . + , , , , , , + .             ,   D@/@3$4$5$6$7$8$9$0$              ",
"                                  $   a$b$[$c$d$e$f$g$  .                                 +   h$i$j$k$l$m$n$o$p$q$              ",
"                                  +   r$s$t$u$v$w$x$y$                                    %   z$1$A$B$C$D$E$F$p$q$              ",
"                                  .   G$H$I$J$K$L$M$N$E+b+                                .   O$P$Q$R$S$T$U$V$p$q$              ",
"                                      W$X$Y$Z$`$ %.%M$D+E+                                    W$+%@%#%$%%%U$V$p$q$              ",
"                                          q$p$V$U$&%*%t@9+                                        9+t@*%&%U$V$p$q$              ",
"                                      . . =%p$V$U$&%-%B+9+                                      . ;%>%,%'%U$V$p$q$              ",
"                                          q$p$V$U$&%*%t@9+                                        9+t@*%&%U$V$p$q$              ",
"                                          q$p$V$U$&%*%t@9+                                        9+t@*%&%U$V$p$q$              ",
"                                          q$p$V$)%!%~%{%9+                                        ]%t@^%!%)%/%p$q$              ",
"                                          q$p$V$U$&%*%t@9+                                        9+t@*%&%U$V$p$q$              ",
"                                          q$(%_%:%<%[%}%|%                                    b+1%2%3%4%5%6%7%9$_$              ",
"                                          8%p$9%0%a%b%c%d%                                    E+D+e%f%5%g%h%i%_$j%              ",
"                                      .   k%l%m%n%o%p%8#q%                                    |%}%r%s%m%n%t%u%   .              ",
"                                       .  v%w%x%y%z%A%B%C%                                    d%c%D%a%x%y%E%F%  .               ",
"                                       .  G%H%I%J%K%L%M%w@                                    s#f#J%I%I%J%f#s#                  "};
