/* XPM */
static char *asphalt_road[] = {
"64 64 4 1",
" 	c #2C2C2C",
".	c #3A3A3A",
"X	c #1F1F1F",
"o	c #2C2C2C",
"oooooooooooooooooooooooooooooooooooooooooooooooooooooooooooooooo",
"oX .X .X .X .X .X .X .X .X .X .X .X .X .X .X .X .X .X .X .X .X o",
"oX .X .X .X .X .X .X .X .X .X .X .X .X .X .X .X .X .X .X .X .X o",
"o  .X .X .X .X .X .X .X .X .X .X .X .X .X .X .X .X .X .X .X .X o",
"o.X .X .X .X .X .X .X .X .X .X .X .X .X .X .X .X .X .X .X .X  .o",
"oX .X .X .X .X .X .X .X .X .X .X .X .X .X .X .X .X .X .X .X .Xo ",
"o .X .X .X .X .X .X .X .X .X .X .X .X .X .X .X .X .X .X .X .X o ",
"o.X .X .X .X .X .X .X .X .X .X .X .X .X .X .X .X .X .X .X .X .o ",
"oX .X .X .X .X .X .X .X .X .X .X .X .X .X .X .X .X .X .X .X .Xo ",
"o .X .X .X .X .X .X .X .X .X .X .X .X .X .X .X .X .X .X .X .X o ",
"o.X .X .X .X .X .X .X .X .X .X .X .X .X .X .X .X .X .X .X .X .o ",
"oX .X .X .X .X .X .X .X .X .X .X .X .X .X .X .X .X .X .X .X .Xo ",
"o .X .X .X .X .X .X .X .X .X .X .X .X .X .X .X .X .X .X .X .X o ",
"o.X .X .X .X .X .X .X .X .X .X .X .X .X .X .X .X .X .X .X .X .o ",
"oX .X .X .X .X .X .X .X .X .X .X .X .X .X .X .X .X .X .X .X .Xo ",
"o .X .X .X .X .X .X .X .X .X .X .X .X .X .X .X .X .X .X .X .X o ",
"o.X .X .X .X .X .X .X .X .X .X .X .X .X .X .X .X .X .X .X .X .o ",
"oX .X .X .X .X .X .X .X .X .X .X .X .X .X .X .X .X .X .X .X .Xo ",
"o .X .X .X .X .X .X .X .X .X .X .X .X .X .X .X .X .X .X .X .X o ",
"o.X .X .X .X .X .X .X .X .X .X .X .X .X .X .X .X .X .X .X .X .o ",
"oX .X .X .X .X .X .X .X .X .X .X .X .X .X .X .X .X .X .X .X .Xo ",
"o .X .X .X .X .X .X .X .X .X .X .X .X .X .X .X .X .X .X .X .X o ",
"o.X .X .X .X .X .X .X .X .X .X .X .X .X .X .X .X .X .X .X .X .o ",
"oX .X .X .X .X .X .X .X .X .X .X .X .X .X .X .X .X .X .X .X .Xo ",
"o .X .X .X .X .X .X .X .X .X .X .X .X .X .X .X .X .X .X .X .X o ",
"o.X .X .X .X .X .X .X .X .X .X .X .X .X .X .X .X .X .X .X .X .o ",
"oX .X .X .X .X .X .X .X .X .X .X .X .X .X .X .X .X .X .X .X .Xo ",
"o .X .X .X .X .X .X .X .X .X .X .X .X .X .X .X .X .X .X .X .X o ",
"o.X .X .X .X .X .X .X .X .X .X .X .X .X .X .X .X .X .X .X .X .o ",
"oX .X .X .X .X .X .X .X .X .X .X .X .X .X .X .X .X .X .X .X .Xo ",
"o .X .X .X .X .X .X .X .X .X .X .X .X .X .X .X .X .X .X .X .X o ",
"o.X .X .X .X .X .X .X .X .X .X .X .X .X .X .X .X .X .X .X .X .o ",
"oX .X .X .X .X .X .X .X .X .X .X .X .X .X .X .X .X .X .X .X .Xo ",
"o .X .X .X .X .X .X .X .X .X .X .X .X .X .X .X .X .X .X .X .X o ",
"o.X .X .X .X .X .X .X .X .X .X .X .X .X .X .X .X .X .X .X .X .o ",
"oX .X .X .X .X .X .X .X .X .X .X .X .X .X .X .X .X .X .X .X .Xo ",
"o .X .X .X .X .X .X .X .X .X .X .X .X .X .X .X .X .X .X .X .X o ",
"o.X .X .X .X .X .X .X .X .X .X .X .X .X .X .X .X .X .X .X .X .o ",
"oX .X .X .X .X .X .X .X .X .X .X .X .X .X .X .X .X .X .X .X .Xo ",
"o .X .X .X .X .X .X .X .X .X .X .X .X .X .X .X .X .X .X .X .X o ",
"o.X .X .X .X .X .X .X .X .X .X .X .X .X .X .X .X .X .X .X .X .o ",
"oX .X .X .X .X .X .X .X .X .X .X .X .X .X .X .X .X .X .X .X .Xo ",
"o .X .X .X .X .X .X .X .X .X .X .X .X .X .X .X .X .X .X .X .X o ",
"o.X .X .X .X .X .X .X .X .X .X .X .X .X .X .X .X .X .X .X .X .o ",
"oX .X .X .X .X .X .X .X .X .X .X .X .X .X .X .X .X .X .X .X .Xo " ,
"o .X .X .X .X .X .X .X .X .X .X .X .X .X .X .X .X .X .X .X .X o ",
"o.X .X .X .X .X .X .X .X .X .X .X .X .X .X .X .X .X .X .X .X .o ",
"oX .X .X .X .X .X .X .X .X .X .X .X .X .X .X .X .X .X .X .X .Xo ",
"o .X .X .X .X .X .X .X .X .X .X .X .X .X .X .X .X .X .X .X .X o ",
"o.X .X .X .X .X .X .X .X .X .X .X .X .X .X .X .X .X .X .X .X .o ",
"oX .X .X .X .X .X .X .X .X .X .X .X .X .X .X .X .X .X .X .X .Xo ",
"o .X .X .X .X .X .X .X .X .X .X .X .X .X .X .X .X .X .X .X .X o ",
"o.X .X .X .X .X .X .X .X .X .X .X .X .X .X .X .X .X .X .X .X .o ",
"oX .X .X .X .X .X .X .X .X .X .X .X .X .X .X .X .X .X .X .X .Xo ",
"o .X .X .X .X .X .X .X .X .X .X .X .X .X .X .X .X .X .X .X .X o " ,
"o.X .X .X .X .X .X .X .X .X .X .X .X .X .X .X .X .X .X .X .X .o ",
"oX .X .X .X .X .X .X .X .X .X .X .X .X .X .X .X .X .X .X .X .Xo ",
"o .X .X .X .X .X .X .X .X .X .X .X .X .X .X .X .X .X .X .X .X o ",
"o.X .X .X .X .X .X .X .X .X .X .X .X .X .X .X .X .X .X .X .X .o ",
"oX .X .X .X .X .X .X .X .X .X .X .X .X .X .X .X .X .X .X .X .Xo ",
"o .X .X .X .X .X .X .X .X .X .X .X .X .X .X .X .X .X .X .X .X o " ,
"o.X .X .X .X .X .X .X .X .X .X .X .X .X .X .X .X .X .X .X .X .o ",
"oX .X .X .X .X .X .X .X .X .X .X .X .X .X .X .X .X .X .X .X .Xo " ,
"o .X .X .X .X .X .X .X .X .X .X .X .X .X .X .X .X .X .X .X .X o ",
"oooooooooooooooooooooooooooooooooooooooooooooooooooooooooooooooo"
};