/* XPM */
static char * gooball_smoking_a_cigarette_438816_xpm[] = {
"64 64 18 1",
" 	c #2C2C2C",
".	c #2C2C2C",
"+	c #323232",
"@	c #4D4D4D",
"#	c #424242",
"$	c #CBCBCB",
"%	c #FFFFFF",
"&	c #1D1D1D",
"*	c #678395",
"=	c #678092",
"-	c #DEA73A",
";	c #D99623",
">	c #EBEBEB",
",	c #FF6A00",
"'	c #FFBB00",
")	c #FF8000",
"!	c #D48D22",
"~	c #E4E4E4",
"                                                                ",
"                                                                ",
"                    .............                               ",
"                   .................    ............            ",
"                  .................... ..............           ",
"        .......  .....................................          ",
"      .................................................         ",
"     ...................................................        ",
"    .....................................................       ",
"   .......................................................      ",
"  .....................++++++++++..........................     ",
" ..................++++++++++++++++++.......................    ",
" ................++++++++++++++++++++++......................   ",
" .............++++++++++@@@@@@@@@@@@++++++...................   ",
" .......... .++++++++@@@@@@@@@@@@@@@@@@++++..................   ",
" ..........++++++++@@@@@@@@@@@@@@@@@@@@@@+++.................   ",
" .........+++++++##@@@@@@@@@@@@@@@@@@@@@@@+++................   ",
" ........++++++###@@@@@@@@@@@@@@@@@@@@@@@@@+$$$$.............   ",
"  ......++++++####@@@@@@@@@@@@@@@@@@@@@@@@$$%%%%$$...........   ",
"  .....++++++####@@@@@@@@@@@@@@@@@@@@@@@@$%%%%%%%%$..........   ",
"  ....++++++#####@@@@@@@@@@@@@@@@@@@@@@@$%%%%%%%%%%$........    ",
" ....++++++######@@@@@@@@@@@@@@@@@@@@@@$%%%%%%%%%%%%$.......    ",
" ....+++++######@@@@@@@@@@@@@@@@@@@@@@@$%%%%%%%%%%%%$........   ",
"....+++++#######@@@@@@@@@@@@@@@@@@@@@@$$%%%%%%%%%%%%%$........  ",
"...+++++########@@@@@@@@@@@@@@@@@@@@@@$$%%%%%%%%%%%%%$........  ",
"...+++++########@@@@@@@@@@@@@@@@@@@@@@$$%%%%%%&&&&%%%$......... ",
"...+++++#########@@@@@@@@@@@@@@@@@@@@@$$%%%%%&&&&&&%%$........* ",
"..+++++##########@@@@@@@@@@@@@@@@@@@@@@$$%%%%&&&&&&%$........*. ",
"..++++####$$$$$$#@@@@@@@@@@@@@@@@@@@@@@$$%%%%&&&&&&%$.......**. ",
"..++++##$$%%%%%%$$@@@@@@@@@@@@@@@@@@@@@@$$%%%&&&&&&$++.....**.. ",
".+++++#$%%%%%%%%%%$@@@@@@@@@@@@@@@@@@@@@@$$%%%&&&&$@++....***.. ",
".+++++$%%%%%%%%%%%%$@@@@@@@@@@@@@@@@@@@@@@$$$%%%$$@@++....***.. ",
".++++$%%%%%%%%%%%%%%$@@@@@@@@@@@@@@@@@@@@@@@$$$$@@@@@+...***... ",
".+++$%%%%%%%%%%%%%%%%$@@@@@@@@@@@@@@@@@@@@@@@@@@@@@@@+...***... ",
".+++$%%%%%%%%%%%%%%%%$@@@@@@@@@@@@@@@@@@@@@@@@@@@@@@@++..**...  ",
".++$%%%%%%%%%%%%%%%%%%$@@@@@@@@@@@@@@@@@@@@@@@@@@@@@@++..**...  ",
".++$%%%%%%%%%%%%%%%%%%$@@@@@@@@@@@@@@@@@@@@@@@@@@@@@@++..***.   ",
".++$$%%%%%%%%%%&&&%%%%$@@@@@@@@@@@@@@@@@@@@@@@@@@@@@@++..***.   ",
".++$$%%%%%%%%%&&&&&%%%$@@@@@@@@@@@@@@@@@@@@@@@@@@@@@@++..***    ",
"..+$$%%%%%%%%&&&&&&&%%$@@@@@@@@@@@@@@@@@@@@@@@@@@@@@++....**    ",
"..+$$$%%%%%%%&&&&&&&%%$@@@@@@@@@@@@@@@@@@@@@@@@@@@@@++.....==   ",
"..++$$%%%%%%%&&&&&&&%$##@@@@@@@@@@@@@@##@@@@@@@@@@@+++.....*==  ",
"...+$$$%%%%%%%&&&&&%%$###@@@@@@@@@@@@#---@@@@@@@@@@++.......*=  ",
"...++$$$%%%%%%%&&&%%$#####@@@@@@@@@@#;;-----%%@@@@@++.......**  ",
"...+++$$$%%%%%%%%%%$#######@@@@@@@@#;;;;;;--%%%%%%%%+......**.  ",
"....+++$$$%%%%%%%%$##########@@@@@@#;;;;;;;;>>>>%%%%%%%++.....  ",
".....+++$$$$%%%%$$#############@@@@#;;;;;;;>>>>>>>>>>++,+,')..  ",
".....+++++$$$$$$##################@@+!!!;;;>>>>>>>>>+#,')),,+.  ",
"......++++++########################++++!!!~>>>>>>>>~~))''))#.  ",
".......++++++#######################++++++@@~~~~>>>>~#'',)'#+.  ",
"........++++++######################++++++##++++~~~++'))'),#+.  ",
" ........++++++#####################+++++##++++.....~+,))#)+.   ",
" .........+++++++##################++++++#++++..........,#,..   ",
"  .........+++++++#################++++++++++...............    ",
"  ...........+++++++###############++++++++................     ",
"  ............+++++++++###########++++++++................  +   ",
"  ..............+++++++++++#####+++++++..................   #   ",
"  .............+++++++++++++++++++++++++.................       ",
"   ............+++++++++++++++++++++++++.................       ",
"    ..............+++++++++++++++++++....................       ",
"     ....................................................  #  # ",
"      ...................................................+ ++   ",
"               ..........................................       ",
"                .........................................       "};
