/* XPM */
static char * day_1_tree_499352_xpm[] = {
"64 64 473 2",
"  	c #2C2C2C",
". 	c #F8FBF8",
"+ 	c #EAF1E8",
"@ 	c #F6F9F5",
"# 	c #FEFEFE",
"$ 	c #C2D7BD",
"% 	c #A0C598",
"& 	c #62AD49",
"* 	c #64AE4C",
"= 	c #85BA78",
"- 	c #8ABD7E",
"; 	c #C9DDC5",
"> 	c #CADEC6",
", 	c #F0F5EF",
"' 	c #D1D8D0",
") 	c #ABC6A5",
"! 	c #429D01",
"~ 	c #45A500",
"{ 	c #73B361",
"] 	c #68AF51",
"^ 	c #A1C798",
"/ 	c #F1F6F0",
"( 	c #FEFFFE",
"_ 	c #F7F8F7",
": 	c #E1E6E0",
"< 	c #F6F7F5",
"[ 	c #809979",
"} 	c #3B8D00",
"| 	c #4AA519",
"1 	c #B0BBAD",
"2 	c #A9B8A6",
"3 	c #ABB9A8",
"4 	c #E1E5E1",
"5 	c #C6CFC4",
"6 	c #AAB7A7",
"7 	c #729569",
"8 	c #5C974A",
"9 	c #3E8C10",
"0 	c #3B7521",
"a 	c #255701",
"b 	c #368200",
"c 	c #3D9100",
"d 	c #317600",
"e 	c #3A8A01",
"f 	c #A0B59B",
"g 	c #C8D1C6",
"h 	c #B2BCB0",
"i 	c #396F21",
"j 	c #2E6E00",
"k 	c #337B00",
"l 	c #398900",
"m 	c #368000",
"n 	c #368100",
"o 	c #327800",
"p 	c #409A00",
"q 	c #43A000",
"r 	c #429F00",
"s 	c #3B8E00",
"t 	c #45A400",
"u 	c #44A200",
"v 	c #6F9963",
"w 	c #C8D2C6",
"x 	c #D0D4CE",
"y 	c #398700",
"z 	c #3C8F00",
"A 	c #419D00",
"B 	c #3F9700",
"C 	c #719D65",
"D 	c #DFE1DF",
"E 	c #366621",
"F 	c #2F7100",
"G 	c #419B00",
"H 	c #439F00",
"I 	c #429D00",
"J 	c #44A300",
"K 	c #A8BFA3",
"L 	c #FDFDFD",
"M 	c #6D7C68",
"N 	c #245600",
"O 	c #2C6A00",
"P 	c #347D00",
"Q 	c #347C00",
"R 	c #337A00",
"S 	c #296300",
"T 	c #3E9400",
"U 	c #3F9800",
"V 	c #5D8D4F",
"W 	c #E2E6E1",
"X 	c #B5BAB3",
"Y 	c #4C6344",
"Z 	c #255900",
"` 	c #307200",
" .	c #317400",
"..	c #2A6600",
"+.	c #286000",
"@.	c #296100",
"#.	c #388600",
"$.	c #419C00",
"%.	c #6A8D61",
"&.	c #C8CFC7",
"*.	c #FDFEFD",
"=.	c #B3B9B2",
"-.	c #204C00",
";.	c #2C6800",
">.	c #3B8C00",
",.	c #3A8A00",
"'.	c #307300",
").	c #409900",
"!.	c #3E9300",
"~.	c #3C9000",
"{.	c #3D9300",
"].	c #307400",
"^.	c #3A8B00",
"/.	c #357E00",
"(.	c #2F7002",
"_.	c #9DAE99",
":.	c #A8AEA6",
"<.	c #2B6800",
"[.	c #357F00",
"}.	c #285F00",
"|.	c #265B00",
"1.	c #3C9100",
"2.	c #418E19",
"3.	c #B4C0B2",
"4.	c #D0D3CF",
"5.	c #2A6400",
"6.	c #317500",
"7.	c #2B6600",
"8.	c #2D6B00",
"9.	c #2C6900",
"0.	c #43A100",
"a.	c #8EA389",
"b.	c #F0F2F0",
"c.	c #E2E4E1",
"d.	c #9CA49A",
"e.	c #8B9588",
"f.	c #245500",
"g.	c #2D6A00",
"h.	c #378300",
"i.	c #398800",
"j.	c #3F9600",
"k.	c #6C8C63",
"l.	c #EFF1EF",
"m.	c #8D978A",
"n.	c #4B6344",
"o.	c #235300",
"p.	c #225200",
"q.	c #214F00",
"r.	c #235400",
"s.	c #2B6700",
"t.	c #36701A",
"u.	c #EAEBE9",
"v.	c #7A8776",
"w.	c #245700",
"x.	c #398A00",
"y.	c #90A08C",
"z.	c #E7E9E7",
"A.	c #2B5119",
"B.	c #286100",
"C.	c #358000",
"D.	c #2D6D00",
"E.	c #C6CDC4",
"F.	c #E1E3E1",
"G.	c #2C511A",
"H.	c #368300",
"I.	c #2E6F00",
"J.	c #8E9D8A",
"K.	c #98A095",
"L.	c #327700",
"M.	c #3E9500",
"N.	c #265A00",
"O.	c #99A197",
"P.	c #E9EAE9",
"Q.	c #556A4F",
"R.	c #2E6D00",
"S.	c #3D9000",
"T.	c #378500",
"U.	c #275D00",
"V.	c #264E0F",
"W.	c #BDC1BC",
"X.	c #A7ADA5",
"Y.	c #2C6B00",
"Z.	c #2A6500",
"`.	c #2F7200",
" +	c #3A8900",
".+	c #F0F1F0",
"++	c #8C9689",
"@+	c #255800",
"#+	c #2D6C00",
"$+	c #264E10",
"%+	c #ACB2AA",
"&+	c #E0E2DF",
"*+	c #697965",
"=+	c #2F6F00",
"-+	c #587151",
";+	c #C5C9C4",
">+	c #F8F8F8",
",+	c #C8CBC7",
"'+	c #808C7C",
")+	c #53684C",
"!+	c #949D91",
"~+	c #424000",
"{+	c #444900",
"]+	c #214D00",
"^+	c #275C00",
"/+	c #224F00",
"(+	c #254A00",
"_+	c #275B00",
":+	c #53694C",
"<+	c #F7F7F7",
"[+	c #EEEFEE",
"}+	c #586C52",
"|+	c #3F4100",
"1+	c #613E00",
"2+	c #354100",
"3+	c #214C00",
"4+	c #294800",
"5+	c #3D4300",
"6+	c #453300",
"7+	c #314800",
"8+	c #334700",
"9+	c #D7D9D6",
"0+	c #D9DBD8",
"a+	c #576C51",
"b+	c #296000",
"c+	c #463300",
"d+	c #562E00",
"e+	c #2A4800",
"f+	c #2F4500",
"g+	c #3D3D00",
"h+	c #453500",
"i+	c #4D4000",
"j+	c #274A00",
"k+	c #413A00",
"l+	c #3D3B00",
"m+	c #B0B6AF",
"n+	c #2D5800",
"o+	c #235100",
"p+	c #3E3B00",
"q+	c #4F2F00",
"r+	c #633700",
"s+	c #5C3700",
"t+	c #2C4700",
"u+	c #334200",
"v+	c #443400",
"w+	c #3F3900",
"x+	c #304500",
"y+	c #BEC2BC",
"z+	c #F1F1F0",
"A+	c #64755F",
"B+	c #235201",
"C+	c #727365",
"D+	c #2D4600",
"E+	c #502E00",
"F+	c #6E3A00",
"G+	c #443600",
"H+	c #52684C",
"I+	c #AFB5AE",
"J+	c #6F7E6B",
"K+	c #B6BBB4",
"L+	c #A9B0A8",
"M+	c #828D7F",
"N+	c #687863",
"O+	c #7B8878",
"P+	c #E8EAE8",
"Q+	c #BEBDBA",
"R+	c #4A4527",
"S+	c #314501",
"T+	c #543400",
"U+	c #522B00",
"V+	c #5D3100",
"W+	c #344300",
"X+	c #F6F6F6",
"Y+	c #C9C8C6",
"Z+	c #67544A",
"`+	c #512B00",
" @	c #663500",
".@	c #334D00",
"+@	c #234C00",
"@@	c #4E6547",
"#@	c #5A6D54",
"$@	c #E7E8E6",
"%@	c #968D89",
"&@	c #643500",
"*@	c #503219",
"=@	c #858279",
"-@	c #969688",
";@	c #898A78",
">@	c #D1D4D0",
",@	c #9A8E89",
"'@	c #6C3900",
")@	c #C1BDBB",
"!@	c #ECE7E3",
"~@	c #E5E1DD",
"{@	c #9B8E89",
"]@	c #6C3800",
"^@	c #713B00",
"/@	c #E3E1E1",
"(@	c #ECE8E3",
"_@	c #E7E2DE",
":@	c #9D8F89",
"<@	c #804400",
"[@	c #7D4200",
"}@	c #E7E2E1",
"|@	c #EBE7E3",
"1@	c #A79289",
"2@	c #824500",
"3@	c #834500",
"4@	c #ECE3E1",
"5@	c #E8E2DE",
"6@	c #773F00",
"7@	c #854600",
"8@	c #EAE3E1",
"9@	c #E9E3DE",
"0@	c #A59189",
"a@	c #7F4300",
"b@	c #864600",
"c@	c #884800",
"d@	c #7E4200",
"e@	c #E8E3E1",
"f@	c #E8E3DE",
"g@	c #874700",
"h@	c #7A4000",
"i@	c #E9E6E3",
"j@	c #E6E2DE",
"k@	c #8C4A00",
"l@	c #743D00",
"m@	c #814400",
"n@	c #E9E3E1",
"o@	c #E8E2DD",
"p@	c #7C4100",
"q@	c #864700",
"r@	c #EBE3E1",
"s@	c #EAE6E1",
"t@	c #A58B7C",
"u@	c #F8F7F6",
"v@	c #763E00",
"w@	c #D4CBC7",
"x@	c #E0D9D7",
"y@	c #A69189",
"z@	c #7E4300",
"A@	c #884700",
"B@	c #FFFEFE",
"C@	c #9E8479",
"D@	c #8F4B00",
"E@	c #FEFDFD",
"F@	c #8D644F",
"G@	c #894800",
"H@	c #ECEAE9",
"I@	c #814611",
"J@	c #D5CAC6",
"K@	c #B7A9A4",
"L@	c #80460F",
"M@	c #794000",
"N@	c #A48578",
"O@	c #F3F1F0",
"P@	c #F2F0EF",
"Q@	c #80481A",
"R@	c #7B4100",
"S@	c #AF8C7C",
"T@	c #E9EBE9",
"U@	c #F1F2F0",
"V@	c #E9EBE8",
"W@	c #F0EFED",
"X@	c #A8897B",
"Y@	c #8D4A00",
"Z@	c #8A4900",
"`@	c #8B4901",
" #	c #E1DAD5",
".#	c #E1E4E1",
"+#	c #D2D7D1",
"@#	c #EDEFED",
"##	c #F5F6F5",
"$#	c #CAD0C9",
"%#	c #C6CDC5",
"&#	c #B4BDB2",
"*#	c #A7B3A5",
"=#	c #698361",
"-#	c #7F9679",
";#	c #5A7E4F",
">#	c #6D8667",
",#	c #6A8363",
"'#	c #50601B",
")#	c #885219",
"!#	c #8D4B00",
"~#	c #844600",
"{#	c #734100",
"]#	c #834600",
"^#	c #944E00",
"/#	c #744200",
"(#	c #854700",
"_#	c #4F6019",
":#	c #32641A",
"<#	c #2F6212",
"[#	c #366521",
"}#	c #56764C",
"|#	c #7F9579",
"1#	c #5A7F4F",
"2#	c #6C8465",
"3#	c #98A694",
"4#	c #9FAC9C",
"5#	c #BEC6BC",
"6#	c #DFE2DE",
"7#	c #F1F3F0",
"8#	c #F0F3EF",
"9#	c #A9B9A5",
"0#	c #577C4C",
"a#	c #2A6001",
"b#	c #2D6900",
"c#	c #2E6B00",
"d#	c #2E6C00",
"e#	c #365F00",
"f#	c #5E5600",
"g#	c #5B5700",
"h#	c #6A5600",
"i#	c #415A00",
"j#	c #685600",
"k#	c #5C5A00",
"l#	c #4A5C00",
"m#	c #5F5900",
"n#	c #2C6000",
"o#	c #2F6D00",
"p#	c #2A6200",
"q#	c #31690F",
"r#	c #5C874F",
"s#	c #E2E8E1",
"t#	c #CAD4C7",
"u#	c #8EA988",
"v#	c #387C0F",
"w#	c #327500",
"x#	c #2C6700",
"y#	c #2F6E00",
"z#	c #2C6600",
"A#	c #326B10",
"B#	c #3A781A",
"C#	c #2E6B02",
"D#	c #366E1A",
"E#	c #347110",
"F#	c #326C0F",
"G#	c #2E6A01",
"H#	c #316B0F",
"I#	c #2B6301",
"J#	c #326D10",
"K#	c #347010",
"L#	c #327400",
"M#	c #347A02",
"N#	c #83A27B",
"O#	c #C9D3C6",
"P#	c #F2F4F1",
"Q#	c #C8D3C6",
"R#	c #608D52",
"S#	c #407F22",
"T#	c #5D8C4F",
"U#	c #8FAA89",
"V#	c #81A179",
"W#	c #9EB499",
"X#	c #9DB398",
"Y#	c #D0D9CE",
"Z#	c #A9BCA5",
"`#	c #B4C4B1",
" $	c #9FB49A",
".$	c #E8ECE7",
"+$	c #C0CDBD",
"@$	c #EFF1EE",
"#$	c #BFCCBC",
"$$	c #DBE2D9",
"%$	c #E0E6DF",
"&$	c #D2DBD1",
"*$	c #E7EBE6",
"=$	c #E9EDE8",
"-$	c #D1DACF",
";$	c #D2DBD0",
">$	c #F0F3F0",
"                                                                                                                                ",
"                                                                                                                                ",
"                                                                                                                                ",
"                                                                                                                                ",
"                                                            . + @ . #                                                           ",
"                                                        # $ % & * = - ; > ,                                                     ",
"                                                      ' ) ! ~ ~ ~ ~ ~ ~ { ] ^ / (                                               ",
"                                            ( _ _ : < [ } ~ ~ ~ ~ ~ ~ ~ ~ ~ | 1 2 3 < _                                         ",
"                                        4 5 6 7 8 9 0 a b ~ ~ ~ ~ ~ ~ ~ ~ ~ c d } e 8 f g (                                     ",
"                                    _ h i j k l c m n o d p q ~ ~ ~ ~ ~ ~ ~ r s t ~ u t v w                                     ",
"                                    x j j y z z z l u q s A t ~ ~ ~ ~ ~ ~ t B u ~ ~ ~ ~ t C ' (                                 ",
"                                  D E j F z } z z n } G ~ ~ ~ ~ H A ~ ~ ~ I t ~ J ~ ~ ~ ~ r K #                                 ",
"                                L M N O j P Q d R S G t ~ ~ H p T ~ ~ ~ ~ ~ ~ ~ t U ~ ~ ~ ~ V W                                 ",
"                                X Y Z `  ...+.@.` #.} p ~ ~ ~ p $.~ ~ ~ ~ ~ t $.A } r t ~ p %.&.*.                              ",
"                              # =.-.;.>.,.y '.S l ,.G ~ ~ ~ ~ ).} p !.~.T u T B {.].} ^.).!./.(._.#                             ",
"                              # :.-.<.[.l b }.|.O n u ~ ~ t B B ~ 1.).q ~ ~ ~ ~ r A ~ ~ ~ ~ u A 2.3.                            ",
"                              # 4.-.5.6.R 7.8.j 9.F {.B ~ p } u ~ $.~ ~ ~ ~ u 0.^.H ~ ~ ~ ~ ~ ~ ).a.b.                          ",
"                            c.d.e.-.f.N @.g.j '.h.$.~ ~ ~ u ^.~ u u ~ ~ I ).~.i.A ~ ~ ~ ~ ~ ~ ~ j.k.l.                          ",
"                            m.n.o.p.q.r.s.j j #.~ ~ ~ ~ A {.p ~ ~ ,.G ,.>.s $.t ~ ~ ~ ~ ~ ~ ~ q k t.'                           ",
"                          u.v.q.;.j w.Z j j j h.~ ~ ~ ~ $.} ~ ~ B x.} j.H ~ ~ ~ ~ ~ ~ ~ ~ ~ ~ u b y.#                           ",
"                          z.A.-.s.y F B.j j j C.~ ~ ~ H T j.$.).} $.~ ~ ~ ~ ~ ~ I ~ ~ ~ ~ ~ I j.D.E.                            ",
"                          F.G.-.;.z n Z 8.j j H.u ~ ~ ~ ~ q l I.b u ~ ~ p ~ ~ ~ 1.~ ~ p T h.l I.9.J.                            ",
"                          _ K.-.}.h.l }.9.j j L.r ~ ~ ~ ~ t k o [.T M.r ,.~ ~ ~ $.r ~ ~ } 9.j 9.N.O.                            ",
"                          P.Q.-.r.D.[./.N.R.j j L.T u ~ t ).'.} S.h.} i.T.p u $.o ,.~ ~ ).8.|.U.V.W.(                           ",
"                            X.-.-.}.n ,.Y.Z.j j j j ].>. .`.R. +#.n C.P j ` ].R j R T t ).R Z.-.G.F.                            ",
"                            .+++-.@+R.F s.U.g.j j j j j #+@.j n S.z n 5.R.j j j j j R ].'.F w.$+%+                              ",
"                              &+*+-.o.w.@+-.|.Z.#+#+#+B.N B.D.F `  .=+B.s.j j j R.9.j j j Z.-+;+L                               ",
"                              >+,+'+++)+!+-.N U.N r.U.~+{+]+^+p.@+N /+(+_+O 9.9.Z.5.#+j 9.U.:+<+                                ",
"                                  <+_ [+}+-.Z.j S +.Z.|+1+2+3+-.-.4+5+6+2+q.r.o.7+8+@+Z ^+$+9+                                  ",
"                                      0+a+-.}.#+j j #+b+c+d+e+f+g+h+i+j+3+f+(+k+l+(+-.-.-.O.u.                                  ",
"                                      >+m+A.-.N ;.U.7.n+o+p+q+d+r+s+3+t+u+v+w+x+-.-.-.-.O.y+                                    ",
"                                        z+X.A+-.q.-.B+C+D+t+x+E+F+G+l+w+w+x+-.-.H+I+J+K+u.                                      ",
"                                          # L+M+N+O+L+P+Q+R+S+T+U+V+W+3+-.-.-.-.)+P.#                                           ",
"                                            # # _ _ (     X+Y+Z+`+ @x+3+.@+@@@#@$@                                              ",
"                                                              %@&@`+*@=@-@;@>@<+                                                ",
"                                                              ,@'@`+)@# !@~@                                                    ",
"                                                              {@]@^@/@  (@_@                                                    ",
"                                                              :@<@[@}@  |@_@                                                    ",
"                                                              1@2@3@4@  |@5@                                                    ",
"                                                              1@6@7@8@  |@9@                                                    ",
"                                                              0@a@b@4@  |@9@                                                    ",
"                                                              1@c@d@e@  |@f@                                                    ",
"                                                              1@g@h@e@  i@5@                                                    ",
"                                                              1@7@6@e@  |@j@                                                    ",
"                                                              1@k@l@}@  (@j@                                                    ",
"                                                              1@m@3@n@  (@o@                                                    ",
"                                                              1@p@q@r@  s@t@u@                                                  ",
"                                                              1@v@7@8@  w@x@                                                    ",
"                                                              y@z@A@8@                                                          ",
"                                                            B@C@3@D@n@                                                          ",
"                                                            E@F@G@g@e@                                                          ",
"                                                            H@I@q@v@J@                                                          ",
"                                                          B@K@L@M@m@N@O@                                                        ",
"                                                          P@Q@R@2@3@3@S@E@                                                      ",
"                                        #   T@L U@b.U@V@W@X@Y@m@v@Z@[@`@ #.#+#@#_ # _ _   (                                     ",
"                                  ##$#%#&#*#=#-#;#>#,#'#)#!#~#{#]#^#/#(#_#:#<#[#}#|#1#2#3#4#5#6#7#                              ",
"                              8#9#0#a#b+b+b+b#c#d#;.c#e#f#g#h#i#j#k#l#m#n#b+b+=+o#=+c#b+b+b+p#q#r#s#                            ",
"                            ( t#u#v#w#x#=+p#y#x#b#;.7.;.z#z#A#d#B#g.C#D#o#A#E#F#G#H#I#J#K#L#M#N#O#*.                            ",
"                                P#Q#R#u#S#T#U#V#W#X#Y#Z#`# $.$+$@$#$$$%$O#.$%$Y#&$*$&$=$=$-$;$*.(                               ",
"                                  ( *.  >$L   ( (                                                                               ",
"                                                                                                                                ",
"                                                                                                                                ",
"                                                                                                                                ",
"                                                                                                                                "};
